<svg width="24" height="24" viewBox="0 0 24 24" fill="none" xmlns="http://www.w3.org/2000/svg">
<path d="M15.75 10.4999C15.75 10.6988 15.671 10.8896 15.5303 11.0302C15.3897 11.1709 15.1989 11.2499 15 11.2499H9C8.80109 11.2499 8.61032 11.1709 8.46967 11.0302C8.32902 10.8896 8.25 10.6988 8.25 10.4999C8.25 10.301 8.32902 10.1102 8.46967 9.96958C8.61032 9.82893 8.80109 9.74991 9 9.74991H15C15.1989 9.74991 15.3897 9.82893 15.5303 9.96958C15.671 10.1102 15.75 10.301 15.75 10.4999ZM15 12.7499H9C8.80109 12.7499 8.61032 12.8289 8.46967 12.9696C8.32902 13.1102 8.25 13.301 8.25 13.4999C8.25 13.6988 8.32902 13.8896 8.46967 14.0302C8.61032 14.1709 8.80109 14.2499 9 14.2499H15C15.1989 14.2499 15.3897 14.1709 15.5303 14.0302C15.671 13.8896 15.75 13.6988 15.75 13.4999C15.75 13.301 15.671 13.1102 15.5303 12.9696C15.3897 12.8289 15.1989 12.7499 15 12.7499ZM21.75 11.9999C21.7504 13.6832 21.3149 15.338 20.486 16.803C19.6572 18.2681 18.4631 19.4937 17.02 20.3604C15.577 21.2271 13.9341 21.7054 12.2514 21.7488C10.5686 21.7922 8.9033 21.3992 7.4175 20.608L4.22531 21.6721C3.96102 21.7602 3.6774 21.773 3.40624 21.709C3.13509 21.645 2.88711 21.5068 2.69011 21.3098C2.49311 21.1128 2.35486 20.8648 2.29087 20.5937C2.22688 20.3225 2.23967 20.0389 2.32781 19.7746L3.39187 16.5824C2.69639 15.2748 2.30793 13.826 2.256 12.3458C2.20406 10.8657 2.49001 9.39316 3.09213 8.04003C3.69425 6.6869 4.59672 5.48873 5.73105 4.53646C6.86537 3.58419 8.20173 2.90285 9.63869 2.54416C11.0756 2.18548 12.5754 2.15886 14.0242 2.46635C15.473 2.77383 16.8327 3.40733 18.0001 4.31875C19.1675 5.23018 20.1119 6.39558 20.7616 7.7265C21.4114 9.05741 21.7494 10.5189 21.75 11.9999ZM20.25 11.9999C20.2496 10.7344 19.9582 9.48593 19.3981 8.3511C18.838 7.21627 18.0244 6.2255 17.0201 5.45544C16.0159 4.68537 14.8479 4.15666 13.6067 3.91021C12.3654 3.66375 11.084 3.70616 9.86178 4.03415C8.63951 4.36215 7.50909 4.96693 6.55796 5.80171C5.60682 6.6365 4.86049 7.6789 4.37668 8.84828C3.89288 10.0177 3.68458 11.2827 3.7679 12.5454C3.85122 13.8082 4.22393 15.0349 4.85719 16.1305C4.91034 16.2225 4.94334 16.3247 4.954 16.4304C4.96467 16.5361 4.95276 16.6429 4.91906 16.7437L3.75 20.2499L7.25625 19.0808C7.33262 19.0548 7.41275 19.0415 7.49344 19.0415C7.62516 19.0417 7.7545 19.0766 7.86844 19.1427C9.12263 19.8684 10.5458 20.2509 11.9948 20.2518C13.4438 20.2527 14.8674 19.872 16.1225 19.1479C17.3776 18.4239 18.4199 17.382 19.1445 16.1272C19.869 14.8724 20.2503 13.4489 20.25 11.9999Z" fill="#F2F2F2"/>
</svg>
